<svg width="24" height="24" viewBox="0 0 24 24" fill="none" xmlns="http://www.w3.org/2000/svg">
<rect width="24" height="24" rx="12" fill="white"/>
<path d="M12 14.75C12.625 14.75 13.1563 14.5312 13.594 14.0935C14.0317 13.6558 14.2503 13.1247 14.25 12.5C14.25 11.875 14.0312 11.3437 13.5935 10.906C13.1558 10.4683 12.6247 10.2497 12 10.25C11.375 10.25 10.8437 10.4688 10.406 10.9065C9.96833 11.3442 9.74967 11.8753 9.75 12.5C9.75 13.125 9.96883 13.6563 10.4065 14.094C10.8442 14.5317 11.3753 14.7503 12 14.75ZM12 14.25L11.45 13.05L10.25 12.5L11.45 11.95L12 10.75L12.55 11.95L13.75 12.5L12.55 13.05L12 14.25ZM7 16.5V8.5H9.575L10.5 7.5H13.5L14.425 8.5H17V16.5H7Z" fill="black"/>
</svg>
