<svg width="25" height="24" viewBox="0 0 25 24" fill="none" xmlns="http://www.w3.org/2000/svg">
<path d="M20.3425 4.62H16.5625V3.18C16.5625 3.081 16.4815 3 16.3825 3H15.1225C15.0235 3 14.9425 3.081 14.9425 3.18V4.62H9.1825V3.18C9.1825 3.081 9.1015 3 9.0025 3H7.7425C7.6435 3 7.5625 3.081 7.5625 3.18V4.62H3.7825C3.38425 4.62 3.0625 4.94175 3.0625 5.34V20.28C3.0625 20.6783 3.38425 21 3.7825 21H20.3425C20.7408 21 21.0625 20.6783 21.0625 20.28V5.34C21.0625 4.94175 20.7408 4.62 20.3425 4.62ZM19.4425 19.38H4.6825V10.83H19.4425V19.38ZM4.6825 9.3V6.24H7.5625V7.32C7.5625 7.419 7.6435 7.5 7.7425 7.5H9.0025C9.1015 7.5 9.1825 7.419 9.1825 7.32V6.24H14.9425V7.32C14.9425 7.419 15.0235 7.5 15.1225 7.5H16.3825C16.4815 7.5 16.5625 7.419 16.5625 7.32V6.24H19.4425V9.3H4.6825Z" fill="white"/>
</svg>
