<svg width="12" height="12" viewBox="0 0 12 12" fill="none" xmlns="http://www.w3.org/2000/svg">
<path fill-rule="evenodd" clip-rule="evenodd" d="M6.5 7C7.84438 7 8.94091 8.06115 8.99769 9.39155L9 9.5V10.5C9 10.7761 8.77614 11 8.5 11C8.24358 11 8.03225 10.807 8.00336 10.5583L8 10.5V9.5C8 8.70116 7.37554 8.04817 6.58814 8.00254L6.5 8H2.5C1.70116 8 1.04817 8.62446 1.00255 9.41186L1 9.5V10.5C1 10.7761 0.776142 11 0.5 11C0.243582 11 0.0322464 10.807 0.00336387 10.5583L0 10.5V9.5C0 8.15562 1.06115 7.05909 2.39156 7.00231L2.5 7H6.5ZM10.125 7.08087C11.1914 7.3562 11.9474 8.2948 11.9974 9.38653L12 9.5V10.5C12 10.7761 11.7761 11 11.5 11C11.2436 11 11.0322 10.807 11.0034 10.5583L11 10.5V9.50037C10.9995 8.81679 10.5369 8.22001 9.875 8.04912C9.60763 7.98008 9.44684 7.70737 9.51588 7.44C9.58491 7.17262 9.85763 7.01184 10.125 7.08087ZM4.5 0.999996C5.88071 0.999996 7 2.11928 7 3.5C7 4.88071 5.88071 6 4.5 6C3.11929 6 2 4.88071 2 3.5C2 2.11928 3.11929 0.999996 4.5 0.999996ZM8.12402 1.08062C9.23022 1.36385 10.0039 2.36062 10.0039 3.5025C10.0039 4.64438 9.23022 5.64114 8.12402 5.92437C7.85651 5.99286 7.58412 5.83153 7.51562 5.56401C7.44713 5.2965 7.60847 5.02412 7.87598 4.95562C8.5397 4.78568 9.00392 4.18762 9.00392 3.5025C9.00392 2.81737 8.5397 2.21931 7.87598 2.04937C7.60847 1.98088 7.44713 1.70849 7.51562 1.44098C7.58412 1.17346 7.85651 1.01213 8.12402 1.08062ZM4.5 2C3.67157 2 3 2.67157 3 3.5C3 4.32842 3.67157 5 4.5 5C5.32843 5 6 4.32842 6 3.5C6 2.67157 5.32843 2 4.5 2Z" fill="white"/>
</svg>
