<svg width="16" height="16" viewBox="0 0 16 16" fill="none" xmlns="http://www.w3.org/2000/svg">
<g clip-path="url(#clip0_1340_46345)">
<path fill-rule="evenodd" clip-rule="evenodd" d="M7.99984 0.666656C8.73622 0.666656 9.33317 1.26361 9.33317 1.99999V2.05999C9.33492 2.49842 9.59686 2.89394 9.99984 3.06666C10.4112 3.24822 10.8917 3.1611 11.2132 2.84666L11.2532 2.80666C11.5033 2.55629 11.8426 2.41561 12.1965 2.41561C12.5504 2.41561 12.8897 2.55629 13.1398 2.80666C13.3902 3.05675 13.5309 3.39611 13.5309 3.74999C13.5309 4.10387 13.3902 4.44323 13.1398 4.69332L13.0998 4.73332C12.7854 5.05478 12.6983 5.53526 12.8798 5.94666V5.99999C13.0525 6.40297 13.4481 6.66491 13.8865 6.66666H13.9998C14.7362 6.66666 15.3332 7.26361 15.3332 7.99999C15.3332 8.73637 14.7362 9.33332 13.9998 9.33332H13.9398C13.5014 9.33507 13.1059 9.59701 12.9332 9.99999C12.7516 10.4114 12.8387 10.8919 13.1532 11.2133L13.1932 11.2533C13.4435 11.5034 13.5842 11.8428 13.5842 12.1967C13.5842 12.5505 13.4435 12.8899 13.1932 13.14C12.9431 13.3904 12.6037 13.531 12.2498 13.531C11.896 13.531 11.5566 13.3904 11.3065 13.14L11.2665 13.1C10.945 12.7855 10.4646 12.6984 10.0532 12.88C9.65019 13.0527 9.38825 13.4482 9.3865 13.8867V14C9.3865 14.7364 8.78955 15.3333 8.05317 15.3333C7.31679 15.3333 6.71984 14.7364 6.71984 14V13.94C6.70927 13.4884 6.42375 13.0892 5.99984 12.9333C5.58844 12.7518 5.10796 12.8389 4.7865 13.1533L4.7465 13.1933C4.49641 13.4437 4.15705 13.5844 3.80317 13.5844C3.44929 13.5844 3.10993 13.4437 2.85984 13.1933C2.60947 12.9432 2.46879 12.6039 2.46879 12.25C2.46879 11.8961 2.60947 11.5567 2.85984 11.3067L2.89984 11.2667C3.21428 10.9452 3.3014 10.4647 3.11984 10.0533C2.94712 9.65034 2.5516 9.3884 2.11317 9.38666H1.99984C1.26346 9.38666 0.666504 8.7897 0.666504 8.05332C0.666504 7.31694 1.26346 6.71999 1.99984 6.71999H2.05984C2.51139 6.70943 2.91059 6.4239 3.0665 5.99999C3.24807 5.5886 3.16095 5.10811 2.8465 4.78666L2.8065 4.74666C2.55613 4.49657 2.41545 4.1572 2.41545 3.80332C2.41545 3.44944 2.55613 3.11008 2.8065 2.85999C3.05659 2.60962 3.39596 2.46894 3.74984 2.46894C4.10372 2.46894 4.44308 2.60962 4.69317 2.85999L4.73317 2.89999C5.05463 3.21443 5.53511 3.30155 5.9465 3.11999H5.99984C6.40282 2.94728 6.66476 2.55175 6.6665 2.11332V1.99999C6.6665 1.26361 7.26346 0.666656 7.99984 0.666656ZM7.99984 5.99999C6.89527 5.99999 5.99984 6.89542 5.99984 7.99999C5.99984 9.10456 6.89527 9.99999 7.99984 9.99999C9.10441 9.99999 9.99984 9.10456 9.99984 7.99999C9.99984 6.89542 9.10441 5.99999 7.99984 5.99999Z" fill="white"/>
</g>
<defs>
<clipPath id="clip0_1340_46345">
<rect width="16" height="16" fill="white"/>
</clipPath>
</defs>
</svg>
